<svg width="54" height="54" viewBox="0 0 54 54" fill="none" xmlns="http://www.w3.org/2000/svg">
<g clip-path="url(#clip0_432_428)">
<path d="M38.3123 23.8128C43.3748 18.7503 43.6912 12.728 43.533 10.0428C43.5066 9.6335 43.3322 9.24783 43.0422 8.95784C42.7522 8.66784 42.3665 8.49338 41.9573 8.46706C39.272 8.30886 33.254 8.62104 28.1873 13.6878L14.875 27L25 37.125L38.3123 23.8128Z" stroke="#21A27A" stroke-width="4" stroke-linecap="round" stroke-linejoin="round"/>
<path d="M26.6874 15.1875H13.6831C13.2362 15.1877 12.8076 15.3652 12.4913 15.6811L5.24563 22.9268C5.02441 23.1485 4.86925 23.4274 4.79753 23.7323C4.72581 24.0372 4.74034 24.356 4.83952 24.6531C4.93869 24.9502 5.11859 25.2138 5.35907 25.4144C5.59956 25.6151 5.89114 25.7449 6.20118 25.7892L14.8749 27" stroke="#21A27A" stroke-width="4" stroke-linecap="round" stroke-linejoin="round"/>
<path d="M36.8125 25.3125V38.3168C36.8123 38.7638 36.6348 39.1924 36.3189 39.5086L29.0732 46.7543C28.8515 46.9755 28.5726 47.1307 28.2677 47.2024C27.9628 47.2741 27.644 47.2596 27.3469 47.1604C27.0498 47.0612 26.7862 46.8813 26.5856 46.6409C26.3849 46.4004 26.2551 46.1088 26.2108 45.7987L25 37.125" stroke="#21A27A" stroke-width="4" stroke-linecap="round" stroke-linejoin="round"/>
<path d="M17.9462 39.6182C17.1299 41.4091 14.3793 45.5625 6.4375 45.5625C6.4375 37.6207 10.5909 34.87 12.3817 34.0537" stroke="#21A27A" stroke-width="4" stroke-linecap="round" stroke-linejoin="round"/>
</g>
<defs>
<clipPath id="clip0_432_428">
<rect width="54" height="54" fill="white"/>
</clipPath>
</defs>
</svg>
